<?xml version="1.0"?><svg width="115" height="146" xmlns="http://www.w3.org/2000/svg">
 <g>
  <title>Layer 1</title>
  <path fill="black" stroke-width="0.036" stroke-miterlimit="10" stroke="#000000" fill-rule="evenodd" d="m15.079208,113.379761c-1.764008,-0.432007 -3.20401,-0.720001 -4.716003,-0.468002c-1.619995,0.072006 -3.095993,0.035995 -4.031998,1.440002c-0.900009,1.404007 -1.296005,3.636002 -1.188004,6.839996c-0.936005,-0.180008 -1.548004,0.180008 -2.123993,0.936005c-0.684006,0.755997 -1.26001,2.339996 -1.188004,3.779999c0.108002,1.439987 0.612,2.807999 1.656006,4.5c-2.052002,0.035995 -3.024002,0.791992 -3.312012,2.123993c-0.287994,1.368011 -0.431992,4.78801 1.908005,5.940002c2.304001,1.007996 6.192001,1.080002 11.807999,0.216003c0.143997,-3.348007 0.251999,-6.371994 0.468002,-9.468002c0.179993,-3.167999 0.468002,-6.40799 0.720001,-8.748001c0.143997,-2.339996 0.395996,-4.068008 0.468002,-5.184006c0.035995,-1.259995 -0.216003,-1.763992 -0.468002,-1.90799z" clip-rule="evenodd"/>
  <path stroke-width="0.036" stroke-miterlimit="10" stroke="#000000" fill-rule="evenodd" fill="#E2B79C" d="m3.451202,132.711761c1.007996,0.360001 2.160004,2.483994 3.744003,2.87999c1.440002,0.324005 3.852005,-0.935989 4.751999,-0.575989c0.792007,0.251999 1.115997,1.944 0,2.447998c-1.223999,0.395996 -5.328003,0.539993 -7.056,0.287994c-1.944,-0.360001 -3.132004,-1.547989 -3.707993,-2.304001c-0.504013,-0.935989 0,-2.123993 0.539993,-2.591995c0.324005,-0.505005 0.755997,-0.649002 1.727997,-0.143997z" clip-rule="evenodd"/>
  <path fill="black" stroke-width="0.036" stroke-miterlimit="10" stroke="#000000" fill-rule="evenodd" d="m17.239212,116.654755c1.151993,-0.071991 2.159988,0.360001 3.168015,1.296005c0.935974,0.863998 2.123962,2.052002 2.735962,4.139999c0.540039,2.087997 0.720032,4.643997 0.540039,8.063995l5.327972,3.419998c0.792023,-2.519989 1.656006,-5.435989 2.735992,-8.603989c1.007996,-3.384003 2.196014,-7.667999 3.564026,-10.764008c1.403992,-3.096008 2.843994,-6.227997 4.607971,-7.307999c1.584015,-1.080002 3.312012,-0.792007 5.184021,0.863998c5.867981,-3.455994 10.90799,-7.380005 15.515991,-11.627991c4.608002,-4.320007 8.35199,-8.964005 11.772003,-14.076004l2.160004,-1.728012c-0.252014,-0.64798 0.323975,-4.391998 1.872009,-11.087982c1.511993,-6.804005 3.85199,-16.560009 7.164001,-29.412006c-2.628021,-1.115997 -4.392029,-2.844002 -5.580017,-5.040001c-1.187988,-2.412003 -2.123993,-6.947998 -1.440002,-8.459999c0.612,-1.475998 3.671997,-1.295998 5.291992,-0.288002c1.476013,0.937004 2.772034,2.807999 3.888,5.760002c-0.395996,-4.32 -0.251984,-8.711998 0.288025,-13.176003c0.503967,-4.571999 1.547974,-10.835999 2.987976,-13.787994c1.368011,-3.132004 4.536011,-6.228001 5.472015,-4.139999c0.863983,2.195999 0.863983,7.739998 -0.144012,17.063995c2.268005,-5.435997 4.140015,-9.071999 6.012024,-10.907997c1.763977,-1.835999 4.175964,-1.512001 4.751984,-0.143997c0.324005,1.223999 -0.720001,3.851997 -1.873016,7.596001c-1.115967,3.743996 -2.59198,8.495995 -4.57196,14.651993c2.699982,-4.860001 5.18396,-8.062996 7.162964,-9.612c1.980011,-1.655998 4.067993,-0.827995 4.895996,0.144005c0.721008,0.935997 0.79303,3.167999 -0.179993,5.435997c-1.044983,2.160004 -2.950989,4.608002 -5.867981,7.487999c3.023987,-1.403999 5.364014,-1.835999 7.164978,-1.584c1.871033,0.288002 3.203003,1.907997 3.455017,3.312004c0,1.295998 -1.332001,2.916 -3.167999,4.427994c-2.053009,1.332001 -5.796997,1.475998 -8.31601,3.888c-2.519989,2.447998 -4.067993,4.644005 -6.875977,10.475998c-2.952026,5.724007 -8.568024,17.460003 -10.619995,23.544003c-2.160034,5.975998 -2.880005,9.936005 -2.160034,12.167999c1.764008,-0.108002 2.627991,0.468002 2.736023,1.872009c0.071991,1.29599 -1.296021,3.276001 -2.160004,6.335999c-0.972015,2.987991 -1.800018,6.263992 -3.312012,11.915985c-1.655975,5.652008 -4.319977,15.73201 -5.903992,21.924011c-1.548004,6.155991 -2.628021,10.944 -3.240021,14.759995l-43.703979,0c-2.195984,0.287994 -3.960022,-0.251999 -5.687988,-1.619995c-1.619995,-1.475998 -3.059998,-4.572006 -4.320023,-6.660004c-1.403992,-2.052002 -2.699997,-3.923996 -4.031998,-5.615997c0.902008,-4.966995 1.802002,-9.936005 2.702011,-14.904007z" clip-rule="evenodd"/>
  <path stroke-width="0.036" stroke-miterlimit="10" stroke="#000000" fill-rule="evenodd" fill="#E2B79C" d="m8.347198,114.926758c-0.935989,0.287994 -1.043991,1.764008 -1.151993,3.312012c-0.251999,1.547989 -0.899994,4.283997 0,5.723999c0.792007,1.223999 3.852005,3.419983 4.895996,2.159988c0.863998,-1.439987 1.475998,-8.028 0.863998,-9.900009c-0.755997,-1.906982 -3.636002,-1.691986 -4.608002,-1.29599z" clip-rule="evenodd"/>
  <path stroke-width="0.036" stroke-miterlimit="10" stroke="#000000" fill-rule="evenodd" fill="#E2B79C" d="m5.323212,123.819763c0.791992,0.539993 1.332001,2.339996 2.447998,3.455994c1.080002,0.972 3.347992,1.512009 3.744003,2.447998c0.287994,0.828003 -0.936005,3.024002 -2.016006,2.844009c-1.332001,-0.324005 -4.031998,-2.916 -5.184006,-4.284012c-1.187988,-1.475983 -1.763992,-3.095993 -1.584,-3.888c0.143997,-0.792999 1.656006,-1.115997 2.59201,-0.575989z" clip-rule="evenodd"/>
  <path stroke-width="0.036" stroke-miterlimit="10" stroke="#000000" fill-rule="evenodd" fill="#E2B79C" d="m19.435211,119.390762c0.287994,-0.504013 1.187988,0.755997 1.727997,1.979996c0.395996,1.115997 1.332001,3.20401 1.29599,4.751999c-0.179993,1.548004 -1.079987,3.311996 -1.727997,4.031998c-0.791992,0.540009 -1.979996,0.396011 -2.304001,-0.575989c-0.360001,-1.116013 0.251999,-3.492004 0.432007,-5.184006c0.071991,-1.835999 0.216003,-4.427994 0.576004,-5.003998z" clip-rule="evenodd"/>
  <path stroke-width="0.036" stroke-miterlimit="10" stroke="#000000" fill-rule="evenodd" fill="#E2B79C" d="m23.323212,132.423752c1.439972,0.540009 2.483978,1.296005 3.276001,1.872009c0.720001,0.539993 1.152008,1.29599 1.29599,1.871994c-0.287994,2.916 -0.575989,5.076004 -1.007996,6.192001c-0.468018,1.080002 -0.936005,1.404007 -1.548004,0.684006c-0.612,0.539993 -1.29599,0.360001 -1.90799,-0.540009c-0.684021,-1.007996 -1.296021,-2.556 -1.980011,-5.039993c0.251984,-0.576004 0.540009,-1.152008 0.863983,-2.016006c0.324036,-0.86499 0.612,-1.873001 1.008026,-3.024002z" clip-rule="evenodd"/>
  <path stroke-width="0.036" stroke-miterlimit="10" stroke="#000000" fill-rule="evenodd" fill="#F7F619" d="m28.759216,143.222763c0.179993,-2.268005 0.755981,-5.292007 1.872009,-9.503998c1.007996,-4.248001 3.131958,-11.304001 4.57196,-15.479996c1.368042,-4.212006 2.664001,-7.740021 3.888,-9.324005c1.188019,-1.656006 2.052002,-0.684006 3.16803,-0.576004c1.007996,0.035995 2.052002,0.32399 3.131989,0.863998c0.251984,0.216003 1.980011,-0.755997 5.328003,-3.455994c3.311981,-2.772003 10.980011,-8.783997 14.652008,-12.348007c3.671997,-3.419998 5.83197,-6.371994 7.019989,-8.460007c0.503998,1.368011 1.800018,2.556 3.888,3.564011c2.087982,0.792007 7.308014,1.043991 8.459991,2.304001c0.936005,1.367996 -1.403992,3.059998 -2.303986,5.903992c-0.863983,2.772003 -1.223999,2.988007 -3.024017,10.764008c-1.94397,7.776001 -4.751984,19.332001 -8.567993,35.35199c-7.451996,0.180008 -14.615997,0.360001 -21.635986,0.396011c-7.05603,0.035995 -13.824005,0.035995 -20.447998,0z" clip-rule="evenodd"/>
  <path stroke-width="0.036" stroke-miterlimit="10" stroke="#000000" fill-rule="evenodd" d="m77.287201,118.527756c-1.584015,1.044006 -2.915985,1.188004 -3.600006,0.431992c-0.719971,-0.827988 -1.187988,-2.411987 -1.007996,-5.039978c-2.484009,-0.64801 -3.492004,-1.800018 -3.167999,-3.168015c0.251984,-1.404007 1.980011,-3.311996 5.040009,-5.435989c-1.764008,-2.268005 -2.339996,-4.140015 -2.015991,-5.615997c0.359985,-1.584015 2.59198,-3.600006 4.175995,-3.420013c1.548004,0.144012 3.167999,1.619995 5.003998,4.428009c-1.476013,5.940002 -2.952026,11.880005 -4.428009,17.819992z" clip-rule="evenodd"/>
  <path stroke-width="0.036" stroke-miterlimit="10" stroke="#000000" fill-rule="evenodd" fill="#FB0F0C" d="m77.683228,116.078766c-1.188019,1.187988 -2.088013,1.763992 -2.700012,1.727997c-0.720032,-0.144012 -1.187988,-1.188004 -1.007996,-2.160004c0.107971,-1.044006 0.828003,-2.195999 2.015991,-3.744003c-2.304016,0.468002 -3.600006,0.324005 -3.888,-0.287994c-0.324005,-0.755997 0.899994,-3.095993 1.872009,-3.707993c0.828003,-0.612 1.97998,-0.756012 3.311981,-0.144012c-2.052002,-2.988007 -3.059998,-5.147995 -3.167999,-6.623993c-0.071991,-1.512009 1.440002,-2.556 2.59201,-2.160004c1.007996,0.251999 2.196014,1.548004 3.563995,3.888c-0.864014,4.391998 -1.727997,8.785004 -2.59198,13.212006z" clip-rule="evenodd"/>
  <path stroke-width="0.036" stroke-miterlimit="10" stroke="#000000" fill-rule="evenodd" d="m38.119202,82.13176c-0.323975,5.220001 -0.179993,10.151993 0.575989,14.796005c0.684021,4.571991 0.720032,9.575989 3.600037,12.779999c2.807983,3.203995 9.107971,7.199997 13.211975,6.156006c3.996002,-1.296021 8.135986,-7.596008 10.764008,-13.212006c2.556,-5.796005 3.20401,-16.020004 4.283997,-20.376007c0.828003,-4.283997 0.467987,-3.131989 1.29599,-5.003998c0.864014,-2.015991 2.808014,-4.356003 3.600006,-6.335999c0.68399,-2.088013 0.828003,-4.320007 0.287994,-5.580002c-0.719971,-1.296005 -2.843994,-1.835995 -3.888,-2.015995c-1.007996,-0.252007 -1.727997,0.036003 -2.159973,0.71999l0.143982,-2.015987c1.619995,-1.296005 3.059998,-2.304001 4.463989,-3.024002c1.332031,-0.720001 2.484009,-1.152 3.600006,-1.296005l-6.335999,-0.575996c0.756012,-0.935997 1.764008,-1.835999 3.024017,-2.556c1.259979,-0.792 2.555969,-1.512001 4.283997,-2.159996c-1.26001,-0.684006 -2.447998,-1.116005 -3.708008,-1.296005c-1.367981,-0.287994 -2.52002,-0.287994 -3.888,-0.143997c2.556,-0.612 4.427979,-1.188004 5.76001,-1.440002c1.29599,-0.323997 2.052002,-0.468002 2.123993,-0.431999c-1.944,-0.540001 -3.708008,-0.827995 -5.436005,-0.863998c-1.764008,-0.144005 -3.671997,0.18 -4.895996,0.288002c-1.296021,0.035995 -2.195984,0.035995 -2.700012,0c0.684021,-0.756004 1.872009,-1.188004 3.708008,-1.584c1.835999,-0.324005 4.140015,-0.612 7.200012,-0.576004l-5.184021,-1.007996l4.895996,-1.548004l-6.47998,-2.160004c-0.64801,-0.899994 -1.980011,-1.619995 -3.85199,-2.015991c-1.90802,-0.468002 -4.5,-0.612007 -7.632019,-0.576004c-0.68399,-1.512001 -2.160004,-1.944 -4.427979,-1.584c-2.412018,0.395996 -6.768005,1.871994 -9.324036,3.888c-2.483978,1.871994 -4.5,4.860001 -5.759979,7.307999c-1.440002,2.339996 -2.628021,4.643997 -2.447998,6.912003c0.108002,2.123993 1.115997,4.175995 3.167999,6.155998c-2.124023,0.396004 -3.564026,1.439995 -4.176025,2.735996c-0.68396,1.29599 -0.359985,3.708008 0.144012,5.291992c0.432007,1.512009 1.152008,2.664001 2.303986,3.600006c-0.03598,2.916 -0.07196,5.832001 -0.143982,8.748001z" clip-rule="evenodd"/>
  <path stroke-width="0.036" stroke-miterlimit="10" stroke="#000000" fill-rule="evenodd" fill="#E2B79C" d="m40.279205,75.111755c-0.287994,2.268005 -0.432007,4.032013 -0.287994,5.436005c0,1.26001 -0.036011,1.979996 0.864014,2.591995c0.755981,0.539993 2.052002,1.296005 4.319977,1.008011c2.232025,-0.396011 5.940002,-1.080017 9.180023,-3.024017c3.23999,-2.087982 8.063965,-8.388 9.755981,-8.747986c1.440002,-0.432007 0.324005,2.411987 -0.287994,6.587997c-0.64801,4.175995 -1.944,13.82399 -3.312012,18.251999c-1.403992,4.248001 -3.167999,7.380005 -5.14798,7.596008c-2.160034,0.108002 -5.076019,-3.384003 -7.200012,-6.444c-2.160004,-3.132019 -3.924011,-7.056 -5.436005,-11.916016l-3.311981,0c0.216003,5.364014 0.791992,9.900009 1.871979,13.608002c0.972015,3.671997 2.447998,6.408005 4.284027,8.352005c1.727966,1.944 3.563965,2.987991 6.335999,3.132004c2.843994,-0.036011 7.811981,-1.080002 10.187988,-3.132004c2.231995,-2.052002 1.90799,-4.751999 3.312012,-9.216003c1.403992,-4.679993 3.203979,-14.039993 4.57196,-18.215988c1.223999,-4.17601 2.052002,-4.428009 2.880005,-6.444c0.791992,-2.052002 1.368011,-4.536011 1.584015,-5.904007c0.03598,-1.62001 -0.432007,-2.520004 -1.007996,-2.844009c-0.576019,-0.287994 -1.440002,0.036011 -2.447998,1.115997l-2.303986,-3.131985l-6.156006,-0.143997c0.143982,1.727993 -0.288025,3.203991 -1.152039,4.283993c-0.971985,1.080002 -2.735962,1.800003 -4.175964,2.160004c-1.584015,0.360001 -3.240021,0.539993 -4.572021,-0.143997c-1.33197,-0.828003 -2.339996,-2.304016 -3.167999,-4.572006l-2.160004,0c0.216003,1.763992 0.072021,3.240005 -0.575989,4.572006c-0.684021,1.259995 -1.727997,2.26799 -3.276001,3.023987c-0.503998,1.26001 -0.503998,2.124008 0,2.736008c0.432007,0.503998 1.476013,1.115997 2.988007,0.720001c1.368011,-0.396011 4.53598,-3.024002 5.615997,-3.024002c1.080017,-0.108002 1.548004,1.223999 0.720001,2.447998c-1.115997,1.188004 -4.571991,3.779999 -6.335999,4.428009c-1.727997,0.503998 -2.915985,-0.395996 -3.708008,-1.296005c-0.899994,-0.972 -1.152008,-2.447998 -1.152008,-4.427994c-0.432007,0.179993 -0.863983,0.358994 -1.29599,0.575989z" clip-rule="evenodd"/>
  <path stroke-width="0.036" stroke-miterlimit="10" stroke="#000000" fill-rule="evenodd" fill="#FFFFFF" d="m45.283203,86.883759c0.108002,1.980011 0.828003,3.996002 2.160004,6.444c1.29599,2.339996 3.81601,7.09201 5.615997,7.73999c1.619995,0.432007 2.916016,-0.395996 4.428009,-4.283997c1.475983,-3.959991 2.915985,-10.043991 4.463989,-18.828003c-4.067993,3.492004 -7.415985,5.940002 -10.188019,7.488007c-2.879974,1.476013 -4.895996,1.907013 -6.47998,1.440002z" clip-rule="evenodd"/>
  <path stroke-width="0.036" stroke-miterlimit="10" stroke="#000000" fill-rule="evenodd" fill="#E2B79C" d="m42.151184,60.602764c0.972015,-0.288002 1.656006,-0.144005 2.448029,0.143997c0.68399,0.288002 1.29599,0.864006 1.835999,1.728004l2.735992,0c-0.179993,-1.656006 0.252014,-2.807999 1.296021,-3.600006c0.971985,-0.791992 3.023987,-1.223999 4.751984,-1.295998c1.584015,-0.288002 3.85202,-0.467995 5.003998,0c1.080017,0.396004 1.656006,1.260002 1.727997,2.592003l4.175995,-0.143997c-1.151978,-1.116005 -1.727997,-1.980011 -1.727997,-2.59201c-0.03598,-0.719994 1.548004,-0.68399 1.440002,-1.29599c-0.287994,-0.828003 -2.303986,-1.548004 -2.59201,-2.556c-0.323975,-0.972 1.116028,-2.484009 0.720032,-2.880005c-0.612,-0.395996 -2.736023,0.251999 -3.744019,0.143997c-1.115997,-0.287994 -1.187988,-1.655998 -2.304016,-1.727997c-1.223999,-0.18 -3.671997,1.080002 -4.427979,1.007996c-0.756012,-0.215996 0.359985,-1.763992 -0.144012,-1.871994c-0.827972,-0.18 -2.123993,0.612 -3.743988,0.863998c-1.583984,0.143997 -4.140015,-0.360001 -5.291992,0.143997c-1.080017,0.468002 -0.864014,1.800003 -1.584015,2.592003c-1.007996,0.575996 -3.455994,0.036003 -3.600006,1.439995c-0.036011,1.512009 0.791992,3.817001 3.023987,7.308006z" clip-rule="evenodd"/>
  <path stroke-width="0.036" stroke-miterlimit="10" stroke="#000000" fill-rule="evenodd" d="m40.135193,56.85976c1.116028,-0.360001 2.268005,-0.683998 3.455994,-0.575996c1.223999,0 3.384033,0.288002 3.564026,0.719994c0,0.396004 -2.015991,1.152008 -3.132019,1.584c-1.223999,0.324005 -2.519989,0.468002 -3.888,0.432007c0,-0.720001 0,-1.441002 0,-2.160004z" clip-rule="evenodd"/>
  <path stroke-width="0.036" stroke-miterlimit="10" stroke="#000000" fill-rule="evenodd" d="m52.051208,54.591763c0.432007,-0.540001 3.671997,-0.827995 5.291992,-0.863998c1.440002,-0.036003 4.356018,0.251999 3.888,0.719994c-0.575989,0.432007 -5.220001,1.548004 -6.731995,1.692001c-1.583984,-0.036995 -2.951996,-1.151993 -2.447998,-1.547997z" clip-rule="evenodd"/>
  <path stroke-width="0.036" stroke-miterlimit="10" stroke="#000000" fill-rule="evenodd" fill="#EDEF01" d="m39.847198,50.84676c0.396027,0.108002 1.008026,0.108002 1.440002,-0.287994c0.396027,-0.432007 0.828003,-1.475998 1.440002,-1.872002c0.540009,-0.396004 1.115997,-0.540001 1.872009,-0.431999c0.612,-2.160004 1.944,-4.068001 3.996002,-5.436005c2.052002,-1.403999 4.679993,-2.556 8.171997,-3.167999c-0.684021,-0.755997 -1.692017,-1.043999 -3.420013,-0.720001c-1.727997,0.144005 -4.715973,1.044006 -6.623993,2.304001c-2.052002,1.404007 -4.140015,3.816002 -5.291992,5.580002c-1.152008,1.584999 -1.728027,2.880997 -1.584015,4.031998z" clip-rule="evenodd"/>
  <path stroke-width="0.036" stroke-miterlimit="10" stroke="#000000" fill-rule="evenodd" fill="#EDEF01" d="m46.579224,48.255764c-0.072021,-1.476006 0.935974,-2.808006 2.879974,-3.996002c1.90799,-1.403999 5.652008,-2.879997 8.891998,-3.312004c3.16803,-0.395996 6.660004,0.036003 10.332031,1.152008c-4.46402,-0.576004 -8.244019,-0.288002 -11.340027,0.720001c-3.167999,1.043991 -5.651978,2.807999 -7.451996,5.435997c-1.079987,0 -2.196014,0 -3.311981,0z" clip-rule="evenodd"/>
  <path stroke-width="0.036" stroke-miterlimit="10" stroke="#000000" fill-rule="evenodd" fill="#EDEF01" d="m53.203186,47.390766c0.684021,-1.044006 1.872009,-1.944 3.564026,-2.556c1.583984,-0.648003 4.391998,-1.260002 6.47998,-1.440002c2.088013,-0.288002 3.996033,-0.288002 5.868011,-0.143997c1.691986,0.071991 3.131989,0.215996 4.320007,0.575996c-1.26001,0.467995 -2.123993,0.792 -2.735992,1.115997c-0.64801,0.288002 -0.936035,0.575996 -0.864014,0.720001c-1.296021,0.036003 -2.627991,0.468002 -3.996002,1.152c-1.403992,0.647995 -2.843994,1.656006 -4.319977,3.024002c-0.864014,-0.936005 -1.728027,-1.512001 -2.736023,-1.727997c-1.115997,-0.28801 -2.160004,0.32399 -3.132019,0.287994c-1.007996,-0.071999 -1.691986,-0.539001 -2.447998,-1.007996z" clip-rule="evenodd"/>
  <path stroke-width="0.036" stroke-miterlimit="10" stroke="#000000" fill-rule="evenodd" fill="#EDEF01" d="m65.839203,50.127766c3.096008,-0.756004 4.860016,-1.044006 5.436005,-0.863998c0.468018,0.071991 -1.223999,0.827995 -2.304016,1.584c-1.187988,0.68399 -2.483978,1.547997 -4.283997,2.591995c-0.071991,-0.612 -0.071991,-1.188004 0.144012,-1.727997c0.216003,-0.540009 0.503998,-1.117004 1.007996,-1.584z" clip-rule="evenodd"/>
  <path stroke-width="0.036" stroke-miterlimit="10" stroke="#000000" fill-rule="evenodd" fill="#EDEF01" d="m66.27121,53.582767c1.548004,-0.576004 3.024017,-1.008003 4.428009,-1.152008c1.367981,-0.251999 2.664001,-0.251999 3.888,0c-1.656006,0.684006 -2.952026,1.548004 -3.744019,2.447998c-0.935974,0.936005 -1.692017,2.160004 -1.29599,2.844009c0.324005,0.503998 1.475983,0.647995 3.455994,0.431992l-3.600006,2.736008l-2.303986,-0.720001c-0.828003,-0.900002 -1.29599,-1.764008 -1.26001,-2.447998c-0.071991,-0.684006 1.188019,-1.26001 1.26001,-1.872009c0.071991,-0.718994 -0.252014,-1.475998 -0.828003,-2.26799z" clip-rule="evenodd"/>
  <path stroke-width="0.036" stroke-miterlimit="10" stroke="#000000" fill-rule="evenodd" fill="#A16121" d="m50.755188,61.178761c-0.575989,1.008003 0.036011,2.628006 0.576019,3.887997c0.467987,1.151993 1.007996,2.520004 2.447998,2.987991c1.404022,0.324005 4.751984,0.684021 5.868011,-0.720001c1.007996,-1.511993 1.151978,-6.731983 0.287994,-8.027981c-0.972015,-1.368004 -3.708008,-0.540009 -5.292023,-0.144005c-1.583984,0.288002 -3.383972,1.008995 -3.888,2.015999z" clip-rule="evenodd"/>
  <path stroke-width="0.036" stroke-miterlimit="10" stroke="#000000" fill-rule="evenodd" fill="#A16121" d="m42.727203,62.76276c-1.223999,0.036003 -2.699982,0.468002 -3.600006,1.152c-0.971985,0.647999 -1.691986,1.187992 -1.872009,2.448002c-0.216003,1.187988 -0.07196,3.311996 0.576019,4.427994c0.467987,1.008011 1.475983,1.584 2.59201,1.584c1.151978,-0.179993 2.951965,-1.403992 4.031982,-2.304001c0.864014,-1.007996 1.476013,-2.016006 1.692017,-3.167999c0.216003,-1.223999 0.071991,-2.87999 -0.432007,-3.563992c-0.756012,-0.755997 -1.799988,-0.720001 -2.988007,-0.576004z" clip-rule="evenodd"/>
  <path stroke-width="0.036" stroke-miterlimit="10" stroke="#000000" fill-rule="evenodd" d="m58.927185,118.23877c-0.251984,-1.692017 -0.251984,-2.952011 0.288025,-4.17601c0.503998,-1.259995 1.367981,-2.591995 2.59198,-2.87999c1.116028,-0.432007 3.384033,-0.144012 3.888,0.863983c0.324036,1.007996 -0.107971,2.736008 -1.583984,5.184006c1.26001,-0.612 2.231995,-0.612 3.312012,0.143997c1.044006,0.64801 2.915985,2.628006 2.699982,4.139999c-0.395996,1.367996 -1.871979,2.952011 -4.715973,4.464005c0.863983,1.548004 1.295959,2.843994 1.151978,4.031998c-0.216003,1.080002 -1.080017,2.807999 -2.015991,2.843994c-0.936005,-0.107986 -2.231995,-0.972 -3.744019,-2.987991c-0.935974,2.015991 -1.763977,3.203995 -2.880005,3.563995c-1.151978,0.251999 -2.987976,-0.972 -3.563965,-1.727997c-0.684021,-0.936005 -0.360016,-2.304001 0,-3.276001c0.287964,-1.007996 1.007996,-1.872009 2.015991,-2.59201c-2.196014,-1.583984 -3.636017,-3.023987 -4.463989,-4.319992c-0.828003,-1.331985 -0.972015,-2.843994 -0.432007,-3.563995c0.575989,-0.828003 2.231995,-1.440002 3.599976,-1.296005c1.26001,0.072006 2.447998,0.503998 3.85199,1.584015z" clip-rule="evenodd"/>
  <path stroke-width="0.036" stroke-miterlimit="10" stroke="#000000" fill-rule="evenodd" fill="#FB0F0C" d="m60.223206,120.651764c-0.072021,-1.800003 0.072021,-3.276001 0.287994,-4.572006c0.216003,-1.296005 0.251984,-2.916 1.079987,-3.203995c0.684021,-0.540009 3.024017,-0.287994 3.276001,0.755997c0.216003,1.043991 -0.612,2.916 -2.195984,5.615997c1.476013,-1.151993 2.556,-1.584 3.635986,-1.151993c0.972015,0.359985 2.664001,2.375992 2.304016,3.527985c-0.503998,1.044006 -1.872009,2.016006 -4.643982,2.916016c1.043976,1.763992 1.583984,2.987991 1.619995,4.21199c-0.108032,1.080002 -0.864014,2.59201 -1.692017,2.447998c-0.828003,-0.251999 -1.90799,-1.367996 -3.23999,-3.636002c-0.720001,2.484009 -1.583984,3.960007 -2.447998,4.572006c-0.972015,0.540009 -2.664001,-0.612 -2.988007,-1.115997c-0.432007,-0.612 0.324005,-1.512009 0.863983,-2.304001c0.540009,-0.863998 1.116028,-1.727997 2.124023,-2.735992c-2.484009,-1.729004 -4.104004,-3.132019 -5.004028,-4.356018c-0.935974,-1.259979 -0.863983,-2.411987 -0.359985,-3.023987c0.468018,-0.720001 1.764008,-1.511993 3.059998,-1.115997c1.187988,0.322998 2.627991,1.332001 4.320007,3.167999z" clip-rule="evenodd"/>
  <path stroke-width="0.036" stroke-miterlimit="10" stroke="#000000" fill-rule="evenodd" d="m41.647217,126.087769c-0.324005,1.332001 -0.936005,2.447983 -1.692017,3.203995c-0.828003,0.647995 -2.123993,1.475998 -3.059998,1.367996c-1.044006,-0.216003 -2.843994,-1.080002 -2.772003,-2.016006c-0.03598,-0.935989 1.115997,-2.123993 3.060028,-3.563995c-1.22403,0.035995 -2.088013,-0.395996 -2.592041,-1.296005c-0.612,-0.936005 -1.440002,-3.276001 -0.68396,-4.247986c0.791992,-1.080017 2.519958,-1.656006 5.327972,-1.872009c-0.215973,-1.584 0,-2.735992 0.503998,-3.600006c0.468018,-0.935989 1.799988,-1.979996 2.59201,-1.583984c0.791992,0.359985 1.29599,1.547989 1.90799,3.707993c1.368011,-1.332001 2.55603,-2.087997 3.564026,-1.871994c1.007996,0 1.94397,1.799988 2.231995,2.627991c0.071991,0.791992 -0.504028,1.944 -1.152008,2.628006c-0.64801,0.719986 -1.440002,1.043991 -2.519989,1.367996c1.151978,2.015991 1.835999,3.636002 2.052002,5.003998c0.216003,1.368011 -0.324036,2.412003 -0.936035,2.988007c-0.755981,0.32399 -2.375977,0.251999 -3.312988,-0.216003c-1.006989,-0.503998 -1.799011,-1.332001 -2.518982,-2.627991z" clip-rule="evenodd"/>
  <path stroke-width="0.036" stroke-miterlimit="10" stroke="#000000" fill-rule="evenodd" fill="#FB0F0C" d="m41.683228,123.890762c-0.64801,1.367996 -1.26001,2.556 -1.836029,3.563995c-0.68399,0.863998 -1.29599,2.052002 -1.980011,2.160004c-0.791992,-0.072006 -2.59198,-0.792007 -2.339966,-1.728012c0.251984,-0.935989 1.440002,-2.123993 3.707977,-3.707993c-1.548004,0.324005 -2.699982,0.324005 -3.311981,-0.395996c-0.684021,-0.684006 -1.332031,-2.952011 -0.576019,-3.599991c0.64801,-0.684021 2.268005,-1.008011 4.716003,-0.684021c-0.324005,-1.691986 -0.216003,-3.131989 0.180023,-3.923981c0.395996,-0.936005 1.511963,-1.835999 2.231995,-1.332001c0.575989,0.503998 1.007996,1.655991 1.29599,3.996002c1.368011,-1.692017 2.59201,-2.664001 3.527985,-2.772003c0.936005,-0.108002 1.800018,1.29599 2.015991,1.979996c0,0.468002 -0.827972,0.972 -1.511963,1.511993c-0.684021,0.432007 -1.619995,0.900009 -2.664001,1.404007c1.403992,2.195999 2.087982,3.888 2.447998,5.220001c0.216003,1.259995 -0.216003,2.160004 -0.756012,2.556c-0.68399,0.431992 -1.944,0.360001 -2.808014,-0.216003c-0.863983,-0.756012 -1.691986,-2.052002 -2.339966,-4.031998z" clip-rule="evenodd"/>
  <path stroke-width="0.036" stroke-miterlimit="10" stroke="#000000" fill-rule="evenodd" d="m30.415222,144.627762c-1.800018,-2.699997 -2.447998,-4.643997 -1.944031,-6.12001c0.432007,-1.475998 2.016022,-2.303986 4.752014,-2.627991c0.143982,-3.419998 0.971985,-5.040009 2.484009,-5.003998c1.511993,0 3.492004,1.800003 6.335999,5.255997c1.835999,-2.843994 3.492004,-4.212006 5.112,-4.104004c1.547974,0 3.959991,2.520004 4.175995,4.643997c0.144012,2.124008 -1.044006,4.608002 -3.420013,7.848007c-5.83197,0.035004 -11.664001,0.071991 -17.495972,0.108002z" clip-rule="evenodd"/>
  <path stroke-width="0.036" stroke-miterlimit="10" stroke="#000000" fill-rule="evenodd" fill="#FB0F0C" d="m32.431213,143.799759c-1.656006,-1.692001 -2.52002,-2.843994 -2.59201,-3.852005c-0.179993,-1.043991 0.936005,-1.871994 1.944,-1.90799c1.007996,-0.036011 2.304016,0.539993 4.031982,1.727997c-0.863983,-2.951996 -1.151978,-4.608002 -0.467987,-5.255997c0.576019,-0.64801 3.167999,0.467987 4.032013,1.547989c0.720001,1.008011 1.115997,2.412003 0.791992,4.356003c2.52002,-3.455994 4.428009,-5.436005 5.867981,-5.940002c1.332031,-0.575989 2.664001,1.26001 2.592041,2.880005c-0.108032,1.584 -1.26001,3.636002 -3.312012,6.444c-4.283997,0 -8.567993,0 -12.888,0z" clip-rule="evenodd"/>
  <path stroke-width="0.036" stroke-miterlimit="10" stroke="#000000" fill-rule="evenodd" d="m71.491211,134.582764c-0.684021,-1.800003 -1.583984,-3.276001 -2.843994,-4.572006c-1.332031,-1.296005 -3.564026,-3.599991 -4.608032,-3.024002c-1.043976,0.432007 -1.619995,2.447998 -1.583984,5.904007c-1.367981,-1.008011 -2.556,-1.296005 -3.563995,-1.008011c-1.044006,0.28801 -2.735992,1.512009 -2.59201,2.700012c0.072021,1.080002 0.936005,2.231995 2.880005,3.599991c0.504028,-0.035995 0.504028,-0.035995 0,0c-0.64801,-0.071991 -2.447998,-0.251999 -3.167999,0.143997c-0.720001,0.360001 -1.187988,1.26001 -1.007996,2.304001c0.144012,0.900009 0.540009,2.23201 1.584015,3.600006l12.635986,0c0.755981,-3.203003 1.511993,-6.408005 2.268005,-9.647995z" clip-rule="evenodd"/>
  <path stroke-width="0.036" stroke-miterlimit="10" stroke="#000000" fill-rule="evenodd" fill="#FB0F0C" d="m70.087219,135.014755l-1.728027,7.776001l-10.33197,0.432007c-0.576019,-1.115997 -0.720032,-1.980011 -0.720032,-2.59201c0,-0.720001 -0.03598,-1.007996 0.864014,-1.29599c0.755981,-0.360001 2.088013,-0.503998 3.996002,-0.576004c-2.123993,-1.188004 -3.311981,-2.195999 -3.708008,-3.167999c-0.359985,-1.044006 0.432007,-2.591995 1.404022,-2.699997c0.899963,-0.108002 2.052002,0.503998 3.743988,1.979996c-0.108002,-2.339996 0.179993,-3.815994 0.720001,-4.572006c0.503998,-0.719986 1.547974,-0.719986 2.59198,0.144012c0.972015,0.792999 1.980011,2.268997 3.16803,4.571991z" clip-rule="evenodd"/>
  <path stroke-width="0.036" stroke-miterlimit="10" stroke="#000000" fill-rule="evenodd" fill="#E2B79C" d="m74.191223,84.362762c0.755981,1.007996 1.763977,1.727997 3.023987,2.447998c1.223999,0.575989 2.700012,1.152008 4.427979,1.440002c0.432007,-4.428009 1.440002,-9.216003 3.312012,-14.364014c1.799988,-5.363983 4.932007,-11.663982 7.452026,-16.667988c2.375977,-5.112 4.859985,-10.152 6.911987,-13.031998c1.799988,-2.772003 2.951996,-2.627998 4.859985,-3.744003c1.944,-1.260002 5.57901,-2.411995 6.876007,-3.599998c1.188019,-1.296005 1.188019,-3.276001 0.576019,-3.852005c-0.756042,-0.647995 -2.557007,0 -4.42804,0.432007c-2.015991,0.431999 -6.407959,2.807999 -6.768982,2.123993c-0.395996,-0.791992 3.312012,-4.607994 4.895996,-6.731995c1.512024,-2.267998 4.105011,-4.968002 4.465027,-6.300003c0.251984,-1.475998 -0.936035,-2.375999 -2.447021,-1.727997c-1.549011,0.683998 -4.825012,3.563995 -6.337006,5.723999c-1.619995,1.980003 -2.196014,6.084 -2.843994,6.479996c-0.720001,0.324005 -1.656006,-1.619995 -1.152008,-4.319992c0.468018,-2.844002 2.916016,-9.18 3.85199,-12.348007c0.864014,-3.347992 1.296021,-6.155998 1.152039,-7.019997c-0.288025,-0.900002 -1.332031,-0.18 -2.55603,1.872002c-1.26001,2.015999 -3.815979,8.783997 -4.895996,10.043999c-1.151978,1.008003 -1.547974,-0.143997 -1.727997,-3.023994c-0.360016,-2.916 0.756012,-12.096008 0.287994,-14.076004c-0.575989,-1.907997 -2.411987,-0.360001 -3.167999,2.304001c-0.791992,2.556 -1.115997,7.739998 -1.548004,12.779999c-0.539978,4.860001 -0.971985,10.403999 -1.440002,16.632004c-1.440002,-2.231003 -2.735992,-3.815002 -3.743988,-5.292007c-1.043976,-1.511993 -1.90799,-2.843994 -2.59201,-3.167999c-0.828003,-0.360001 -2.195984,-0.071999 -2.303986,1.296005c-0.144012,1.332001 0.287994,4.5 1.440002,6.444c1.152008,1.835999 2.735992,3.276001 5.18399,4.463997c-0.467987,3.096001 -1.476013,8.316002 -3.312012,15.804001c-1.799988,7.523994 -4.283997,16.991993 -7.451965,28.98z" clip-rule="evenodd"/>
  <path stroke-width="0.036" stroke-miterlimit="10" stroke="#000000" fill-rule="evenodd" d="m89.527222,42.890766c-0.64801,1.439995 -1.116028,3.023994 -1.404022,5.147995c-0.360016,2.052002 -0.503998,4.356003 -0.575989,7.056c-1.368011,-0.251999 -2.232025,-1.115997 -2.447998,-2.591995c-0.324005,-1.584 0.108002,-4.716003 0.863983,-6.335999c0.720032,-1.656006 1.90802,-2.700005 3.564026,-3.276001z" clip-rule="evenodd"/>
  <path id="svg_1" d="m14.831543,113.608765l4.399994,3.733322l-3.599991,14.666672l-2.266678,6.53334l1.466675,-24.933334z" stroke-linecap="null" stroke-linejoin="null" stroke-dasharray="null" stroke-width="0.036" stroke="#000000" fill="black"/>
 </g>
</svg>